Coordinates
version=1
nRows=21
nColumns=22
inDegrees=yes

Units are S.I. units (second, meters, Newtons, ...)
If the header above contains a line with 'inDegrees', this indicates whether rotational values are in degrees (yes) or radians (no).

endheader
time	pelvis_tilt	pelvis_list	pelvis_rotation	pelvis_tx	pelvis_ty	pelvis_tz	hip_flexion_r	hip_adduction_r	hip_rotation_r	knee_angle_r	ankle_angle_r	subtalar_angle_r	hip_flexion_l	hip_adduction_l	hip_rotation_l	knee_angle_l	ankle_angle_l	subtalar_angle_l	lumbar_extension	lumbar_bending	lumbar_rotation
      3.62000000	     -3.51193868	     -1.68249141	     24.06384644	     -0.09276609	      0.93326357	     -0.46492245	     14.06360550	      8.39975986	      4.37172262	    -61.15013067	     -1.92986253	      7.68628835	     23.21245003	     -2.47353044	     12.00065768	    -24.95276629	      7.56604768	      8.36517841	     -5.36827412	     -3.45219957	      2.69304923
      3.63000000	     -3.45350564	     -1.43318535	     23.54928313	     -0.08583727	      0.93455590	     -0.46879547	     15.63919223	      7.39693286	      2.93110852	    -62.87207282	     -0.96904732	      5.38626852	     22.33369361	     -2.35810065	     11.48833033	    -24.81044139	      7.96259898	      8.04680961	     -5.65394231	     -3.54225256	      2.04218198
      3.64000000	     -3.36746942	     -1.24451335	     23.04137324	     -0.07884354	      0.93589801	     -0.47244601	     17.13702184	      6.49967145	      1.61522919	    -64.29849345	      0.03863001	      3.16703935	     21.44513393	     -2.30981784	     11.00836971	    -24.63327864	      8.32881716	      7.73706917	     -5.92075241	     -3.56942958	      1.39328930
      3.65000000	     -3.24012152	     -1.11599048	     22.53147066	     -0.07179384	      0.93728852	     -0.47585156	     18.54249184	      5.72815152	      0.41777456	    -65.42811033	      1.03622932	      1.14726615	     20.54069112	     -2.33793713	     10.54442356	    -24.43964222	      8.66634308	      7.43242103	     -6.19138691	     -3.53063190	      0.77689297
      3.66000000	     -3.07648881	     -1.04654941	     22.01075449	     -0.06467289	      0.93870979	     -0.47899258	     19.85947540	      5.08957566	     -0.66964558	    -66.26333890	      1.98282895	     -0.60154286	     19.61303427	     -2.44620897	     10.08203394	    -24.21582653	      8.98311736	      7.12720642	     -6.46103393	     -3.43265505	      0.19741510
      3.67000000	     -2.88704837	     -1.00877199	     21.47486547	     -0.05751050	      0.94013828	     -0.48188796	     21.09146080	      4.54652592	     -1.66349105	    -66.82069753	      2.84967140	     -2.01114639	     18.66706695	     -2.60140875	      9.59919774	    -23.97542923	      9.24814380	      6.82831330	     -6.73984075	     -3.30702524	     -0.34772362
      3.68000000	     -2.66796140	     -1.02969499	     20.91511530	     -0.05030948	      0.94153845	     -0.48451786	     22.23639950	      4.13482447	     -2.57487457	    -67.09051826	      3.63559155	     -3.18947572	     17.70473785	     -2.83501816	      9.10145787	    -23.71573221	      9.54583530	      6.51737025	     -7.02435130	     -3.12243774	     -0.84852208
      3.69000000	     -2.44034925	     -1.07781304	     20.33326447	     -0.04309657	      0.94287427	     -0.48692298	     23.30955396	      3.79727923	     -3.42325388	    -67.09884898	      4.33855894	     -4.09301080	     16.74120060	     -3.10257395	      8.57393713	    -23.45124864	      9.83438776	      6.22090343	     -7.30990430	     -2.91848094	     -1.31399366
      3.70000000	     -2.21516058	     -1.14541360	     19.73365880	     -0.03588485	      0.94410422	     -0.48913045	     24.32026264	      3.50950072	     -4.23141994	    -66.86259909	      4.96138940	     -4.82755916	     15.78856991	     -3.38885878	      8.01740852	    -23.19035941	     10.12747861	      5.93478519	     -7.58941830	     -2.70493540	     -1.75139606
      3.71000000	     -2.00396448	     -1.22568903	     19.11108104	     -0.02865960	      0.94520191	     -0.49114419	     25.27292615	      3.26541779	     -4.98899075	    -66.39077536	      5.54596349	     -5.36001457	     14.84552392	     -3.68233064	      7.44355424	    -22.92111495	     10.43510503	      5.68177351	     -7.85107852	     -2.49463819	     -2.16382689
      3.72000000	     -1.80294090	     -1.29129152	     18.48704385	     -0.02146284	      0.94614942	     -0.49302352	     26.16176762	      2.99850882	     -5.75548130	    -65.71008353	      6.04097198	     -5.87430015	     13.93096945	     -3.95140786	      6.82401891	    -22.69172221	     10.74166245	      5.42697793	     -8.11572822	     -2.31084783	     -2.56289962
      3.73000000	     -1.63266443	     -1.36814797	     17.84347077	     -0.01425405	      0.94690748	     -0.49475652	     27.00777465	      2.76347289	     -6.47086944	    -64.82307948	      6.51629167	     -6.18808500	     13.04352293	     -4.21505442	      6.20178795	    -22.46022692	     11.08859882	      5.21840033	     -8.34261049	     -2.12773921	     -2.94301566
      3.74000000	     -1.49639950	     -1.43391342	     17.20416098	     -0.00707507	      0.94745140	     -0.49639235	     27.81363600	      2.49659411	     -7.19786867	    -63.75522145	      6.94532108	     -6.39801084	     12.20948613	     -4.44468159	      5.56754473	    -22.27003374	     11.46585965	      5.02797328	     -8.54287952	     -1.96711277	     -3.29572832
      3.75000000	     -1.35674553	     -1.47615406	     16.56322367	      0.00011997	      0.94788012	     -0.49790824	     28.52202314	      2.22447055	     -7.89389976	    -62.49081828	      7.26214484	     -6.59007532	     11.36317935	     -4.64464550	      4.91262906	    -22.08390970	     11.83089060	      4.83320196	     -8.75968199	     -1.83016047	     -3.67489145
      3.76000000	     -1.25328618	     -1.51731899	     15.92843871	      0.00729820	      0.94807760	     -0.49932203	     29.19493710	      1.93694998	     -8.59631114	    -61.06800889	      7.52808750	     -6.67171164	     10.57297613	     -4.81968332	      4.27226328	    -21.93652090	     12.22210906	      4.64787008	     -8.93969297	     -1.70356395	     -4.02204380
      3.77000000	     -1.17686294	     -1.55799355	     15.29660255	      0.01446355	      0.94807432	     -0.50062356	     29.81451291	      1.65310066	     -9.28313125	    -59.48035480	      7.73535956	     -6.64917935	      9.82758361	     -4.97451920	      3.64207246	    -21.82310767	     12.63549520	      4.46170723	     -9.09608378	     -1.57966308	     -4.35518869
      3.78000000	     -1.11757635	     -1.59707687	     14.66631757	      0.02162981	      0.94789053	     -0.50178793	     30.36915877	      1.37859539	     -9.95741863	    -57.73519375	      7.88150678	     -6.54298380	      9.11436534	     -5.11437748	      3.02127742	    -21.74109751	     13.05685588	      4.26824661	     -9.23730148	     -1.46247475	     -4.66488773
      3.79000000	     -1.07287117	     -1.63848001	     14.03577048	      0.02879158	      0.94753079	     -0.50282741	     30.85441565	      1.11939305	    -10.62150312	    -55.83549404	      7.98706797	     -6.36968071	      8.43494781	     -5.24404220	      2.40689844	    -21.69468420	     13.49683090	      4.06395208	     -9.36426361	     -1.34257059	     -4.93320303
      3.80000000	     -1.02373149	     -1.65594517	     13.40862248	      0.03596617	      0.94705075	     -0.50373917	     31.24530901	      0.85554812	    -11.27321821	    -53.79515665	      8.04838684	     -6.09491089	      7.75514850	     -5.34292534	      1.78757193	    -21.66846104	     13.91412515	      3.85249647	     -9.50572300	     -1.24787235	     -5.18983781
      3.81000000	     -1.00447371	     -1.68153858	     12.78469879	      0.04314834	      0.94638094	     -0.50451207	     31.58336008	      0.62122465	    -11.91266939	    -51.61273062	      8.10092252	     -5.81850024	      7.12714999	     -5.43684706	      1.18268865	    -21.67733609	     14.36525247	      3.64529523	     -9.61084482	     -1.15055368	     -5.41052450
      3.82000000	     -1.01929596	     -1.71458508	     12.16828335	      0.05035463	      0.94552835	     -0.50514061	     31.87086742	      0.42377088	    -12.53578660	    -49.29229582	      8.14834482	     -5.60696783	      6.55081413	     -5.52619741	      0.60095291	    -21.71447452	     14.84395389	      3.44970310	     -9.67404202	     -1.05316046	     -5.61101583
